PathFileType	4	(X/Y/Z)	rand1.trc
DataRate	CameraRate	NumFrames	NumMarkers	Units	OrigDataRate	OrigDataStartFrame	OrigNumFrames
100.0	100.0	4	17	mm	100.0	859	1373
Frame#	Time	STER			XIPH			T10			T1			CLAV_SC			CLAV_AC			SCAP_AA			SCAP_CP			SCAP_TS			SCAP_IA			DELT			ARMl			EPICm			EPICl			LARM_elb			STYLr			STYLu		
		X1	Y1	Z1	X2	Y2	Z2	X3	Y3	Z3	X4	Y4	Z4	X5	Y5	Z5	X6	Y6	Z6	X7	Y7	Z7	X8	Y8	Z8	X9	Y9	Z9	X10	Y10	Z10	X11	Y11	Z11	X12	Y12	Z12	X13	Y13	Z13	X14	Y14	Z14	X15	Y15	Z15	X16	Y16	Z16	X17	Y17	Z17

859	8.58	395.0871276855469	56.84672927856445	1436.379638671875	396.87554931640625	109.90452575683594	1273.7186279296875	386.9641418457031	-119.1794204711914	1238.3470458984375	385.4026794433594	-102.84000396728516	1469.622802734375	430.4614562988281	50.37957763671875	1440.77685546875	577.0331420898438	-4.531300067901611	1461.937744140625	592.4728393554688	-44.83817672729492	1443.124755859375	536.4649658203125	-63.85524368286133	1469.701416015625	527.7276000976562	-120.57695770263672	1418.69384765625	501.6045227050781	-136.20596313476562	1279.5513916015625	674.2945556640625	33.88803482055664	1350.126953125	704.4760131835938	49.08297348022461	1314.5220947265625	712.706787109375	136.0417022705078	1171.863525390625	780.1314697265625	123.80579376220703	1250.940673828125	761.6934814453125	125.98194885253906	1167.2869873046875	776.5595703125	400.5873107910156	1235.9544677734375	773.78369140625	382.1749267578125	1156.597412109375
860	8.59	394.9180603027344	56.80118942260742	1436.477783203125	396.74090576171875	109.3990249633789	1273.734619140625	387.26861572265625	-119.28684997558594	1238.3702392578125	385.67901611328125	-102.99027252197266	1469.654296875	430.515869140625	50.37461471557617	1440.8773193359375	576.7487182617188	-4.158639430999756	1462.32763671875	592.5006713867188	-44.24101257324219	1443.5208740234375	536.5947265625	-63.631343841552734	1469.90283203125	528.1602172851562	-120.26787567138672	1418.8963623046875	502.35223388671875	-136.05397033691406	1279.5802001953125	674.7777099609375	35.63697052001953	1352.227294921875	704.19873046875	51.22426223754883	1316.97412109375	714.6781005859375	139.08663940429688	1174.231689453125	780.7503051757812	127.63677978515625	1255.3153076171875	763.7147827148438	130.11953735351562	1171.2489013671875	772.0501708984375	404.3714904785156	1242.774658203125	770.8164672851562	386.71795654296875	1163.2486572265625
861	8.6	394.8889465332031	56.6916389465332	1436.5606689453125	396.7962341308594	109.29772186279297	1273.6419677734375	387.55108642578125	-119.37408447265625	1238.4075927734375	385.994384765625	-103.15743255615234	1469.72265625	430.3941955566406	50.28353500366211	1440.989501953125	576.3949584960938	-3.7485766410827637	1462.670654296875	592.5477294921875	-43.637874603271484	1443.9207763671875	536.7000732421875	-63.40441131591797	1470.0316162109375	528.623291015625	-119.97803497314453	1419.0526123046875	502.8344421386719	-135.911376953125	1279.72216796875	675.2811279296875	37.355289459228516	1354.3739013671875	705.78125	53.601417541503906	1319.866455078125	716.1978759765625	142.2300567626953	1178.3184814453125	781.3180541992188	131.38905334472656	1259.7353515625	765.6981201171875	134.21131896972656	1175.2998046875	767.4967651367188	407.976318359375	1249.5576171875	767.8370971679688	391.07672119140625	1169.8931884765625
862	8.61	394.5937194824219	56.60993957519531	1436.4732666015625	397.2095031738281	109.22032165527344	1273.88330078125	387.84954833984375	-119.4836196899414	1238.447021484375	386.23101806640625	-103.28617095947266	1469.7647705078125	430.24896240234375	50.115028381347656	1441.2816162109375	576.1277465820312	-3.3797221183776855	1463.073974609375	592.5751342773438	-43.04359817504883	1444.3760986328125	536.8296508789062	-63.157466888427734	1470.1517333984375	529.0916137695312	-119.66433715820312	1419.1357421875	503.65631103515625	-136.0291290283203	1279.9951171875	675.6386108398438	39.061214447021484	1356.5198974609375	706.3732299804688	55.81052780151367	1322.6036376953125	717.7320556640625	145.04429626464844	1181.9559326171875	781.7734375	135.09288024902344	1264.1773681640625	767.421142578125	138.1104736328125	1179.23681640625	762.8382568359375	411.3854064941406	1256.28759765625	764.7073974609375	395.3258056640625	1176.5035400390625
